<svg xmlns="http://www.w3.org/2000/svg" viewBox="0 0 512 512" width="512" height="512">
  <!-- Concept 1: Octagonal Zero with circuit traces -->
  <rect width="512" height="512" fill="transparent"/>
  
  <!-- Outer octagonal "0" shape -->
  <path d="M256 48 L384 96 L448 224 L448 288 L384 416 L256 464 L128 416 L64 288 L64 224 L128 96 Z" 
        fill="none" stroke="#f97316" stroke-width="28" stroke-linejoin="round"/>
  
  <!-- Inner octagonal cutout to make it a "0" -->
  <path d="M256 168 L320 192 L352 248 L352 264 L320 320 L256 344 L192 320 L160 264 L160 248 L192 192 Z" 
        fill="none" stroke="#f97316" stroke-width="20" stroke-linejoin="round"/>
  
  <!-- Circuit traces extending outward -->
  <!-- Top -->
  <line x1="256" y1="48" x2="256" y2="8" stroke="#f97316" stroke-width="8" stroke-linecap="round"/>
  <circle cx="256" cy="4" r="8" fill="#34d399"/>
  
  <!-- Top-right -->
  <line x1="384" y1="96" x2="412" y2="68" stroke="#f97316" stroke-width="8" stroke-linecap="round"/>
  <circle cx="416" cy="64" r="8" fill="#34d399"/>
  
  <!-- Right-top -->
  <line x1="448" y1="224" x2="488" y2="224" stroke="#f97316" stroke-width="8" stroke-linecap="round"/>
  <circle cx="496" cy="224" r="8" fill="#34d399"/>
  
  <!-- Right-bottom -->
  <line x1="448" y1="288" x2="488" y2="288" stroke="#f97316" stroke-width="8" stroke-linecap="round"/>
  <circle cx="496" cy="288" r="8" fill="#34d399"/>
  
  <!-- Bottom-right -->
  <line x1="384" y1="416" x2="412" y2="444" stroke="#f97316" stroke-width="8" stroke-linecap="round"/>
  <circle cx="416" cy="448" r="8" fill="#34d399"/>
  
  <!-- Bottom -->
  <line x1="256" y1="464" x2="256" y2="504" stroke="#f97316" stroke-width="8" stroke-linecap="round"/>
  <circle cx="256" cy="508" r="8" fill="#34d399"/>
  
  <!-- Bottom-left -->
  <line x1="128" y1="416" x2="100" y2="444" stroke="#f97316" stroke-width="8" stroke-linecap="round"/>
  <circle cx="96" cy="448" r="8" fill="#34d399"/>
  
  <!-- Left-bottom -->
  <line x1="64" y1="288" x2="24" y2="288" stroke="#f97316" stroke-width="8" stroke-linecap="round"/>
  <circle cx="16" cy="288" r="8" fill="#34d399"/>
  
  <!-- Left-top -->
  <line x1="64" y1="224" x2="24" y2="224" stroke="#f97316" stroke-width="8" stroke-linecap="round"/>
  <circle cx="16" cy="224" r="8" fill="#34d399"/>
  
  <!-- Top-left -->
  <line x1="128" y1="96" x2="100" y2="68" stroke="#f97316" stroke-width="8" stroke-linecap="round"/>
  <circle cx="96" cy="64" r="8" fill="#34d399"/>
</svg>